<svg width="32" height="27" viewBox="0 0 32 27" fill="none" xmlns="http://www.w3.org/2000/svg">
<path d="M22.245 12.8379C22.245 16.4277 19.3348 19.3379 15.745 19.3379C12.1551 19.3379 9.245 16.4277 9.245 12.8379C9.245 9.24804 12.1551 6.33789 15.745 6.33789C19.3348 6.33789 22.245 9.24804 22.245 12.8379ZM10.74 12.8379C10.74 15.6021 12.9808 17.8429 15.745 17.8429C18.5092 17.8429 20.75 15.6021 20.75 12.8379C20.75 10.0737 18.5092 7.83289 15.745 7.83289C12.9808 7.83289 10.74 10.0737 10.74 12.8379Z" fill="#101010"/>
<path d="M31.245 13.3379C31.245 19.9653 24.3054 25.3379 15.745 25.3379C7.18458 25.3379 0.244995 19.9653 0.244995 13.3379C0.244995 6.71047 7.18458 1.33789 15.745 1.33789C24.3054 1.33789 31.245 6.71047 31.245 13.3379ZM1.95 13.3379C1.95 19.2363 8.12623 24.0179 15.745 24.0179C23.3638 24.0179 29.54 19.2363 29.54 13.3379C29.54 7.43949 23.3638 2.65789 15.745 2.65789C8.12623 2.65789 1.95 7.43949 1.95 13.3379Z" fill="#101010"/>
<rect x="2.00732" y="1.47607" width="2" height="36" transform="rotate(-46.2654 2.00732 1.47607)" fill="black"/>
</svg>
