<svg width="32" height="25" viewBox="0 0 32 25" fill="none" xmlns="http://www.w3.org/2000/svg">
<path d="M22.257 11.8071C22.257 15.397 19.3468 18.3071 15.757 18.3071C12.1671 18.3071 9.25696 15.397 9.25696 11.8071C9.25696 8.21728 12.1671 5.30713 15.757 5.30713C19.3468 5.30713 22.257 8.21728 22.257 11.8071ZM10.752 11.8071C10.752 14.5713 12.9928 16.8121 15.757 16.8121C18.5211 16.8121 20.762 14.5713 20.762 11.8071C20.762 9.04294 18.5211 6.80213 15.757 6.80213C12.9928 6.80213 10.752 9.04294 10.752 11.8071Z" fill="#101010"/>
<path d="M31.257 12.3071C31.257 18.9345 24.3174 24.3071 15.757 24.3071C7.19654 24.3071 0.256958 18.9345 0.256958 12.3071C0.256958 5.67971 7.19654 0.307129 15.757 0.307129C24.3174 0.307129 31.257 5.67971 31.257 12.3071ZM1.96196 12.3071C1.96196 18.2055 8.13819 22.9871 15.757 22.9871C23.3757 22.9871 29.552 18.2055 29.552 12.3071C29.552 6.40873 23.3757 1.62713 15.757 1.62713C8.13819 1.62713 1.96196 6.40873 1.96196 12.3071Z" fill="#101010"/>
</svg>
